<?xml version="1.0" standalone="no"?><!DOCTYPE svg PUBLIC "-//W3C//DTD SVG 1.1//EN" "http://www.w3.org/Graphics/SVG/1.1/DTD/svg11.dtd"><svg height="1024" node-id="1" sillyvg="true" template-height="1024" template-width="1024" version="1.1" viewBox="0 0 1024 1024" width="1024" xmlns="http://www.w3.org/2000/svg" xmlns:xlink="http://www.w3.org/1999/xlink"><defs node-id="41"><linearGradient gradientUnits="objectBoundingBox" id="SVGID_1_" node-id="7" spreadMethod="pad" x1="210.1226" x2="723.6296" y1="432.4802" y2="945.9871"><stop offset="0" stop-color="#39c2ff"></stop><stop offset="1" stop-color="#236ffb"></stop></linearGradient><linearGradient gradientUnits="objectBoundingBox" id="SVGID_2_" node-id="11" spreadMethod="pad" x1="324.2953" x2="837.8022" y1="318.3075" y2="831.8145"><stop offset="0" stop-color="#39c2ff"></stop><stop offset="1" stop-color="#236ffb"></stop></linearGradient><linearGradient gradientUnits="objectBoundingBox" id="SVGID_3_" node-id="23" spreadMethod="pad" x1="620.8588" x2="620.8588" y1="184.2741" y2="666.8101"><stop offset="0" stop-color="#39c2ff"></stop><stop offset="1" stop-color="#236ffb" stop-opacity="0"></stop></linearGradient><linearGradient gradientUnits="objectBoundingBox" id="SVGID_4_" node-id="27" spreadMethod="pad" x1="620.8588" x2="620.8588" y1="184.2741" y2="666.8101"><stop offset="0" stop-color="#39c2ff"></stop><stop offset="1" stop-color="#236ffb" stop-opacity="0"></stop></linearGradient><linearGradient gradientUnits="objectBoundingBox" id="SVGID_5_" node-id="35" spreadMethod="pad" x1="499.0216" x2="322.3272" y1="288.8758" y2="473.5414"><stop offset="0" stop-color="#236ffb"></stop><stop offset="1" stop-color="#236ffb" stop-opacity="0"></stop></linearGradient></defs><g node-id="149"><g node-id="152"><path d="M 136.00 843.10 L 136.20 847.60 L 136.90 851.80 L 137.90 855.90 L 139.40 859.80 L 143.30 867.10 L 148.60 873.50 L 154.90 878.70 L 162.20 882.70 L 166.20 884.20 L 170.30 885.20 L 174.50 885.90 L 179.00 886.10 L 781.80 886.10 L 786.30 885.90 L 790.50 885.20 L 794.60 884.20 L 798.50 882.70 L 802.30 880.90 L 809.10 876.30 L 815.00 870.50 L 819.60 863.60 L 821.40 859.90 L 822.90 855.90 L 823.90 851.80 L 824.60 847.60 L 824.80 843.10 L 824.80 544.50 L 136.00 544.50 L 136.00 843.10 Z" fill="url(#SVGID_1_)" fill-rule="nonzero" group-id="1,4" node-id="80" stroke="none" target-height="341.59998" target-width="688.8" target-x="136" target-y="544.5"></path><path d="M 781.70 410.60 L 178.90 410.60 L 174.40 410.80 L 170.20 411.50 L 166.10 412.50 L 162.20 414.00 L 158.40 415.80 L 151.60 420.40 L 145.70 426.20 L 143.30 429.50 L 139.30 436.80 L 137.80 440.80 L 136.80 444.90 L 136.10 449.10 L 135.90 453.60 L 135.90 513.00 L 824.60 513.00 L 824.60 453.60 L 824.40 449.10 L 823.70 444.90 L 822.70 440.80 L 821.30 436.80 L 819.50 433.10 L 814.90 426.20 L 809.10 420.40 L 805.80 417.90 L 802.20 415.80 L 798.50 414.00 L 794.50 412.50 L 790.40 411.50 L 786.20 410.80 L 781.70 410.60 Z" fill="url(#SVGID_2_)" fill-rule="nonzero" group-id="1,4" node-id="82" stroke="none" target-height="102.399994" target-width="688.69995" target-x="135.9" target-y="410.6"></path></g><g node-id="153"><path d="M 220.30 461.80 L 220.10 464.70 L 218.70 470.10 L 215.90 474.90 L 214.00 477.10 L 211.80 479.00 L 207.00 481.80 L 201.60 483.20 L 198.70 483.40 L 195.80 483.20 L 190.40 481.80 L 185.60 479.00 L 183.40 477.10 L 181.50 474.90 L 178.70 470.10 L 177.30 464.70 L 177.10 461.80 L 177.30 458.90 L 178.70 453.50 L 181.50 448.70 L 183.40 446.50 L 185.60 444.60 L 190.40 441.80 L 195.80 440.40 L 198.70 440.20 L 201.60 440.40 L 207.00 441.80 L 211.80 444.60 L 214.00 446.50 L 215.90 448.70 L 218.70 453.50 L 220.10 458.90 L 220.30 461.80 Z" fill="#003faf" fill-opacity="0.2" fill-rule="nonzero" group-id="1,5" node-id="87" stroke="none" target-height="43.19998" target-width="43.199997" target-x="177.1" target-y="440.2"></path></g><g node-id="154"><path d="M 280.00 461.80 L 279.80 464.70 L 278.40 470.10 L 275.60 474.90 L 273.70 477.10 L 271.50 479.00 L 266.70 481.80 L 261.30 483.20 L 258.40 483.40 L 255.50 483.20 L 250.10 481.80 L 245.30 479.00 L 243.10 477.10 L 239.70 472.60 L 237.50 467.40 L 237.00 464.70 L 236.80 461.80 L 237.50 456.20 L 239.70 451.00 L 243.10 446.50 L 245.30 444.60 L 250.10 441.80 L 255.50 440.40 L 258.40 440.20 L 261.30 440.40 L 266.70 441.80 L 271.50 444.60 L 273.70 446.50 L 275.60 448.70 L 278.40 453.50 L 279.80 458.90 L 280.00 461.80 Z" fill="#003faf" fill-opacity="0.2" fill-rule="nonzero" group-id="1,6" node-id="92" stroke="none" target-height="43.19998" target-width="43.199997" target-x="236.8" target-y="440.2"></path></g><g node-id="155"><path d="M 338.30 461.80 L 338.10 464.70 L 336.70 470.10 L 333.90 474.90 L 332.00 477.10 L 329.80 479.00 L 325.00 481.80 L 319.60 483.20 L 316.70 483.40 L 313.80 483.20 L 308.40 481.80 L 303.60 479.00 L 301.40 477.10 L 298.00 472.60 L 295.80 467.40 L 295.30 464.70 L 295.10 461.80 L 295.80 456.20 L 298.00 451.00 L 301.40 446.50 L 303.60 444.60 L 308.40 441.80 L 313.80 440.40 L 316.70 440.20 L 319.60 440.40 L 325.00 441.80 L 329.80 444.60 L 332.00 446.50 L 333.90 448.70 L 336.70 453.50 L 338.10 458.90 L 338.30 461.80 Z" fill="#003faf" fill-opacity="0.2" fill-rule="nonzero" group-id="1,7" node-id="97" stroke="none" target-height="43.19998" target-width="43.19998" target-x="295.1" target-y="440.2"></path></g><g node-id="156"><path d="M 453.20 831.30 L 448.40 830.70 L 445.20 829.50 L 442.40 827.90 L 439.90 825.90 L 437.90 823.40 L 436.30 820.70 L 435.20 817.70 L 434.60 814.50 L 434.50 811.30 L 435.10 807.90 L 487.80 607.60 L 489.00 604.40 L 490.60 601.60 L 492.70 599.10 L 495.10 597.10 L 497.90 595.50 L 500.90 594.40 L 504.00 593.80 L 507.20 593.70 L 510.60 594.30 L 513.80 595.50 L 516.60 597.10 L 519.10 599.10 L 521.10 601.60 L 522.70 604.30 L 523.80 607.30 L 524.40 610.50 L 524.50 613.70 L 523.90 617.10 L 471.20 817.40 L 470.30 820.10 L 469.00 822.60 L 465.60 826.70 L 463.40 828.30 L 458.60 830.50 L 453.20 831.30 Z" fill="#f2f2f2" fill-opacity="0.9" fill-rule="nonzero" group-id="1,8" node-id="102" stroke="none" target-height="237.59998" target-width="90" target-x="434.5" target-y="593.7"></path></g><g node-id="157"><path d="M 397.30 800.00 L 392.20 799.30 L 389.70 798.40 L 385.30 795.60 L 383.30 793.70 L 318.40 720.20 L 316.50 717.60 L 315.10 714.80 L 314.20 711.80 L 313.80 708.80 L 313.80 705.80 L 314.40 702.70 L 315.50 699.90 L 317.10 697.20 L 319.20 694.70 L 392.70 621.20 L 395.30 619.00 L 398.10 617.40 L 401.20 616.30 L 404.30 615.80 L 407.50 615.80 L 410.60 616.30 L 413.70 617.40 L 416.50 619.00 L 419.10 621.20 L 421.30 623.80 L 422.90 626.60 L 424.00 629.70 L 424.50 632.80 L 424.50 636.00 L 424.00 639.10 L 422.90 642.20 L 421.30 645.00 L 419.10 647.60 L 358.00 708.60 L 411.30 769.00 L 413.30 771.80 L 414.70 774.70 L 415.60 777.70 L 416.00 780.90 L 415.80 784.00 L 415.00 787.20 L 413.80 790.10 L 412.00 792.80 L 409.60 795.30 L 406.80 797.40 L 403.80 798.80 L 400.50 799.70 L 397.30 800.00 Z" fill="#f2f2f2" fill-opacity="0.9" fill-rule="nonzero" group-id="1,9" node-id="107" stroke="none" target-height="184.20001" target-width="110.70001" target-x="313.8" target-y="615.8"></path></g><path d="M 554.70 800.00 L 550.00 799.40 L 545.50 797.60 L 541.50 794.50 L 539.30 791.90 L 537.70 789.10 L 536.60 786.00 L 536.10 782.90 L 536.10 779.70 L 536.60 776.60 L 537.70 773.50 L 539.30 770.70 L 541.50 768.10 L 602.60 707.00 L 549.30 646.60 L 547.30 643.80 L 545.90 640.90 L 545.00 637.90 L 544.60 634.70 L 544.80 631.60 L 545.60 628.40 L 546.80 625.50 L 548.60 622.80 L 551.00 620.30 L 553.80 618.30 L 556.70 616.90 L 559.70 616.00 L 562.90 615.60 L 566.00 615.80 L 569.20 616.60 L 572.10 617.80 L 574.80 619.60 L 577.30 622.00 L 642.20 695.50 L 644.10 698.10 L 645.50 700.90 L 646.40 703.90 L 646.80 706.90 L 646.80 709.90 L 646.20 713.00 L 645.10 715.80 L 643.50 718.50 L 641.40 721.00 L 567.90 794.50 L 566.00 796.20 L 561.80 798.60 L 559.40 799.40 L 554.70 800.00 Z" fill="#f2f2f2" fill-opacity="0.9" fill-rule="nonzero" group-id="1,10" node-id="112" stroke="none" target-height="184.40002" target-width="110.70001" target-x="536.1" target-y="615.6"></path></g><g node-id="150"><g node-id="159"><path d="M 274.70 614.80 L 274.90 619.30 L 275.60 623.60 L 276.60 627.70 L 278.10 631.60 L 282.10 639.00 L 287.30 645.40 L 293.70 650.60 L 301.10 654.60 L 305.00 656.10 L 309.10 657.10 L 313.40 657.80 L 317.90 658.00 L 923.80 658.00 L 928.30 657.80 L 932.60 657.10 L 936.70 656.10 L 940.60 654.60 L 944.40 652.80 L 951.30 648.20 L 954.40 645.40 L 957.20 642.30 L 959.60 639.00 L 961.80 635.40 L 963.60 631.60 L 965.10 627.70 L 966.10 623.60 L 966.80 619.30 L 967.00 614.80 L 967.00 314.60 L 274.70 314.60 L 274.70 614.80 Z" fill="url(#SVGID_3_)" fill-opacity="0.5" fill-rule="nonzero" group-id="2,11" node-id="120" stroke="none" target-height="343.4" target-width="692.3" target-x="274.7" target-y="314.6"></path><path d="M 923.80 180.00 L 317.90 180.00 L 313.40 180.20 L 309.10 180.90 L 305.00 181.90 L 301.10 183.40 L 297.30 185.20 L 290.40 189.80 L 284.50 195.70 L 282.10 199.00 L 278.10 206.40 L 276.60 210.30 L 275.60 214.40 L 274.90 218.70 L 274.70 223.20 L 274.70 282.90 L 967.00 282.90 L 967.00 223.20 L 966.80 218.70 L 966.10 214.40 L 965.10 210.30 L 963.60 206.40 L 961.80 202.60 L 957.10 195.70 L 951.20 189.80 L 947.90 187.40 L 940.60 183.40 L 936.60 181.90 L 932.50 180.90 L 928.30 180.20 L 923.80 180.00 Z" fill="url(#SVGID_4_)" fill-opacity="0.5" fill-rule="nonzero" group-id="2,11" node-id="122" stroke="none" target-height="102.899994" target-width="692.3" target-x="274.7" target-y="180"></path></g><g node-id="160"><path d="M 364.80 236.30 L 364.60 239.30 L 363.10 244.80 L 361.80 247.30 L 359.70 250.30 L 357.10 252.90 L 354.10 255.00 L 351.60 256.30 L 346.10 257.80 L 343.10 258.00 L 340.10 257.80 L 334.60 256.30 L 332.10 255.00 L 329.10 252.90 L 326.50 250.30 L 324.40 247.30 L 322.20 242.10 L 321.60 239.30 L 321.40 236.30 L 322.20 230.50 L 324.40 225.30 L 326.50 222.30 L 329.10 219.70 L 332.10 217.60 L 334.60 216.30 L 340.10 214.80 L 343.10 214.60 L 346.10 214.80 L 351.60 216.30 L 354.10 217.60 L 357.10 219.70 L 359.70 222.30 L 361.80 225.30 L 363.10 227.80 L 364.60 233.30 L 364.80 236.30 Z" fill="#236ffb" fill-opacity="0.2" fill-rule="nonzero" group-id="2,12" node-id="127" stroke="none" target-height="43.399994" target-width="43.399994" target-x="321.4" target-y="214.6"></path></g><g node-id="161"><path d="M 424.90 236.30 L 424.70 239.30 L 423.20 244.80 L 421.90 247.30 L 419.80 250.30 L 417.20 252.90 L 414.20 255.00 L 411.70 256.30 L 406.20 257.80 L 403.20 258.00 L 400.20 257.80 L 394.70 256.30 L 392.20 255.00 L 389.20 252.90 L 386.60 250.30 L 384.50 247.30 L 382.30 242.10 L 381.70 239.30 L 381.50 236.30 L 382.30 230.50 L 384.50 225.30 L 386.60 222.30 L 389.20 219.70 L 392.20 217.60 L 394.70 216.30 L 400.20 214.80 L 403.20 214.60 L 406.20 214.80 L 411.70 216.30 L 414.20 217.60 L 417.20 219.70 L 419.80 222.30 L 421.90 225.30 L 423.20 227.80 L 424.70 233.30 L 424.90 236.30 Z" fill="#236ffb" fill-opacity="0.2" fill-rule="nonzero" group-id="2,13" node-id="132" stroke="none" target-height="43.399994" target-width="43.399994" target-x="381.5" target-y="214.6"></path></g><path d="M 483.50 236.30 L 483.30 239.30 L 481.80 244.80 L 480.50 247.30 L 478.40 250.30 L 475.80 252.90 L 472.80 255.00 L 470.30 256.30 L 464.80 257.80 L 461.80 258.00 L 458.80 257.80 L 453.30 256.30 L 450.80 255.00 L 447.80 252.90 L 445.20 250.30 L 443.10 247.30 L 440.90 242.10 L 440.30 239.30 L 440.10 236.30 L 440.90 230.50 L 443.10 225.30 L 445.20 222.30 L 447.80 219.70 L 450.80 217.60 L 453.30 216.30 L 458.80 214.80 L 461.80 214.60 L 464.80 214.80 L 470.30 216.30 L 472.80 217.60 L 475.80 219.70 L 478.40 222.30 L 480.50 225.30 L 481.80 227.80 L 483.30 233.30 L 483.50 236.30 Z" fill="#236ffb" fill-opacity="0.2" fill-rule="nonzero" group-id="2,14" node-id="137" stroke="none" target-height="43.399994" target-width="43.399994" target-x="440.1" target-y="214.6"></path></g><g node-id="151"><path d="M 283.20 170.30 L 108.90 344.70 L 66.50 302.30 L 240.90 128.00 Z" fill="url(#SVGID_5_)" fill-rule="nonzero" group-id="3" node-id="143" stroke="none" target-height="216.70001" target-width="216.70001" target-x="66.5" target-y="128"></path><g node-id="163"><path d="M 198.30 170.60 L 240.60 128.20 L 283.00 170.60 L 240.60 212.90 Z" fill="#236ffb" fill-rule="nonzero" group-id="3,15" node-id="147" stroke="none" target-height="84.7" target-width="84.7" target-x="198.3" target-y="128.2"></path></g></g></svg>