<?xml version="1.0" encoding="UTF-8"?>
<svg version="1.1" xmlns="http://www.w3.org/2000/svg" width="512" height="512">
<path d="M0 0 C4.23498768 3.13389088 6.46600581 6.33551742 8.125 11.3125 C8.21851969 12.9353417 8.25494081 14.56197341 8.25 16.1875 C8.25257813 17.03054687 8.25515625 17.87359375 8.2578125 18.7421875 C8.12289863 21.35316769 7.70015671 23.76537742 7.125 26.3125 C7.7334375 26.45945312 8.341875 26.60640625 8.96875 26.7578125 C33.46255872 33.02534591 57.69225777 45.34681313 78.125 60.1875 C78.72111084 60.61893311 79.31722168 61.05036621 79.93139648 61.49487305 C81.66836145 62.75979856 83.39815907 64.03379939 85.125 65.3125 C86.00285156 65.96089844 86.88070313 66.60929687 87.78515625 67.27734375 C94.6467419 72.55462832 100.63795646 78.64038653 106.66894531 84.82495117 C108.03081404 86.21627682 109.40746913 87.59308592 110.78515625 88.96875 C123.4214827 101.62617215 132.73313821 116.09662899 140.125 132.3125 C140.40714355 132.92367676 140.68928711 133.53485352 140.97998047 134.16455078 C144.73047728 142.3484575 147.8749783 150.59241592 150.125 159.3125 C150.57552734 161.02953125 150.57552734 161.02953125 151.03515625 162.78125 C155.88967372 184.99913461 156.39125682 214.41693693 145.8203125 234.89453125 C143.43901025 238.29090473 141.00627374 240.86753786 136.87890625 241.84375 C131.44481424 241.76625849 128.45914442 240.85861817 124.125 237.3125 C123.17625 236.61125 122.2275 235.91 121.25 235.1875 C120.54875 234.56875 119.8475 233.95 119.125 233.3125 C119.125 232.6525 119.125 231.9925 119.125 231.3125 C118.465 231.3125 117.805 231.3125 117.125 231.3125 C115.62622497 229.65766392 114.20011527 227.93659488 112.8125 226.1875 C112.01328125 225.18847656 111.2140625 224.18945312 110.390625 223.16015625 C109.64296875 222.22042969 108.8953125 221.28070313 108.125 220.3125 C107.10877952 219.0795169 106.08915143 217.84931133 105.0625 216.625 C104.423125 215.861875 103.78375 215.09875 103.125 214.3125 C102.68929688 214.98796875 102.25359375 215.6634375 101.8046875 216.359375 C97.60162627 222.65486931 94.46418378 226.86610541 87.125 229.3125 C68.36360114 230.83639525 53.41877167 222.86774532 39.125 211.3125 C37.45283283 209.65135205 35.7867211 207.9840976 34.125 206.3125 C31.76457743 204.18736181 29.35423696 202.12316599 26.9375 200.0625 C26.30908203 199.52109375 25.68066406 198.9796875 25.03320312 198.421875 C21.78299044 195.57320647 21.78299044 195.57320647 18.125 193.3125 C15.4484341 194.12991278 12.82657106 195.01150059 10.1875 195.9375 C1.88506374 198.73970622 -6.44426742 200.50692689 -15.06640625 202.0234375 C-16.3042688 202.24668701 -17.54213135 202.46993652 -18.81750488 202.69995117 C-21.83565932 203.24340838 -24.8547562 203.78080005 -27.875 204.3125 C-30.87719726 219.90609821 -33.87622995 235.50030147 -36.87148285 251.09523487 C-38.2622622 258.33599732 -39.65408159 265.57655696 -41.04833984 272.81665039 C-42.2633826 279.12612914 -43.47648381 285.43597751 -44.68724203 291.7462799 C-45.32856483 295.08839644 -45.97086714 298.43031807 -46.61549377 301.77179909 C-47.33411886 305.49947829 -48.04931042 309.22780057 -48.76367188 312.95629883 C-48.97873886 314.06760162 -49.19380585 315.17890442 -49.41539001 316.32388306 C-49.70567833 317.84461678 -49.70567833 317.84461678 -50.00183105 319.39607239 C-50.17144096 320.27822827 -50.34105087 321.16038416 -50.51580048 322.06927204 C-50.95405599 324.4275765 -50.95405599 324.4275765 -50.875 327.3125 C-49.41984985 327.46283691 -49.41984985 327.46283691 -47.93530273 327.61621094 C-27.41684195 329.75016534 -7.10845592 332.1993334 13.125 336.3125 C13.125 336.9725 13.125 337.6325 13.125 338.3125 C14.26582031 338.43496094 15.40664063 338.55742187 16.58203125 338.68359375 C44.60536042 342.21956353 77.4265677 355.84654878 98.125 375.3125 C99.13228078 376.77266671 100.11182549 378.25236207 101.0625 379.75 C105.06377396 385.29462249 110.79525962 387.3118195 116.86083984 390.00756836 C130.45020711 396.04977202 146.46626894 405.62422457 152.22265625 420.06640625 C154.37495866 427.80910452 154.46669282 436.56135827 150.9375 443.875 C150.04159516 445.37972416 149.10778642 446.86302729 148.125 448.3125 C147.444375 449.323125 146.76375 450.33375 146.0625 451.375 C141.80714623 456.11209193 136.25755757 459.60926226 131.125 463.3125 C130.35414063 463.92351562 129.58328125 464.53453125 128.7890625 465.1640625 C87.55229671 496.85126148 16.3474459 500.83201911 -33.65759277 505.12109375 C-35.72045532 505.29915973 -37.78262568 505.48519526 -39.84472656 505.671875 C-82.56938342 509.40348007 -127.16498907 509.08586367 -169.875 505.3125 C-171.40412532 505.18218839 -172.9332598 505.05198426 -174.46240234 504.921875 C-218.5747203 501.10761715 -264.04621661 495.30101214 -305.56787109 479.20605469 C-307.77188696 478.35243585 -309.98635917 477.53566445 -312.20703125 476.7265625 C-320.08235047 473.79903771 -327.01665328 470.16625576 -333.875 465.3125 C-335.33292969 464.28189453 -335.33292969 464.28189453 -336.8203125 463.23046875 C-339.52751869 461.2848899 -342.21495985 459.32203189 -344.875 457.3125 C-345.72964844 456.67570312 -346.58429688 456.03890625 -347.46484375 455.3828125 C-349.97477234 453.22679605 -351.69498937 451.09862786 -353.5625 448.375 C-354.14386719 447.54097656 -354.72523438 446.70695312 -355.32421875 445.84765625 C-359.71546845 438.6690138 -359.79217073 431.48587102 -358.875 423.3125 C-353.50435384 406.66540818 -338.05245126 397.64089951 -323.33203125 389.93359375 C-318.3255471 387.58592039 -313.20677442 385.69933966 -307.9921875 383.8671875 C-304.81933226 382.7299929 -301.83307231 381.34835341 -298.796875 379.88671875 C-292.1638182 376.83092551 -285.30927974 375.05038926 -278.25 373.25 C-276.91494581 372.89875812 -275.58014907 372.5465363 -274.24560547 372.19335938 C-267.89916924 370.52618118 -261.55219308 369.00453668 -255.11401367 367.73706055 C-248.38673486 366.38601102 -244.19008112 364.72362107 -239.6640625 359.3203125 C-236.39999345 355.6571433 -232.14229745 353.6316834 -227.875 351.3125 C-226.76125 350.673125 -225.6475 350.03375 -224.5 349.375 C-215.91754254 344.52700889 -207.20479416 341.03352513 -197.84375 337.98388672 C-195.88881793 337.31721222 -193.98425049 336.5668448 -192.06640625 335.80078125 C-160.66867176 323.94602842 -123.85684975 325.84786623 -90.875 326.3125 C-90.78508789 325.06533203 -90.69517578 323.81816406 -90.60253906 322.53320312 C-89.72890938 313.86063617 -87.88951149 305.33081812 -86.234375 296.78125 C-85.86625491 294.86250025 -85.49852567 292.94367548 -85.13116455 291.02478027 C-84.16375051 285.97721076 -83.19105707 280.93067285 -82.21722412 275.88433838 C-81.24450051 270.83886721 -80.27676752 265.79243958 -79.30859375 260.74609375 C-73.48221859 230.39573899 -73.48221859 230.39573899 -71.21289062 218.8125 C-70.85484344 216.97721741 -70.85484344 216.97721741 -70.48956299 215.1048584 C-70.06533156 212.93308472 -69.63814514 210.76188496 -69.20721436 208.59143066 C-69.02700745 207.6672937 -68.84680054 206.74315674 -68.66113281 205.79101562 C-68.50735168 205.01230103 -68.35357056 204.23358643 -68.19512939 203.43127441 C-67.77540257 201.01045212 -67.77540257 201.01045212 -67.875 197.3125 C-68.67421875 196.91160156 -69.4734375 196.51070312 -70.296875 196.09765625 C-82.77205901 189.64043072 -93.2671957 181.17459792 -103.84375 172.01171875 C-104.63700684 171.32456787 -104.63700684 171.32456787 -105.44628906 170.62353516 C-106.875 169.3125 -106.875 169.3125 -108.953125 166.94140625 C-110.78456205 165.06199167 -110.78456205 165.06199167 -113.453125 165.140625 C-114.77570313 165.34945312 -114.77570313 165.34945312 -116.125 165.5625 C-117.46304688 165.75585938 -117.46304688 165.75585938 -118.828125 165.953125 C-119.50359375 166.07171875 -120.1790625 166.1903125 -120.875 166.3125 C-120.875 166.9725 -120.875 167.6325 -120.875 168.3125 C-130.65055065 171.11025375 -140.37462124 173.60098986 -150.4375 175.125 C-151.2325293 175.2485083 -152.02755859 175.3720166 -152.84667969 175.49926758 C-164.36405775 177.13381426 -177.23367405 177.64764513 -187.15625 170.734375 C-193.14308309 165.78163126 -195.7029499 160.65814352 -196.5 153 C-196.63224874 151.43809683 -196.75965396 149.87574232 -196.875 148.3125 C-197.79539063 148.83199219 -198.71578125 149.35148438 -199.6640625 149.88671875 C-225.20585179 164.06979599 -225.20585179 164.06979599 -238.875 161.3125 C-242.34408568 159.208065 -243.54724882 156.42181168 -244.6875 152.5625 C-245.15380628 144.47985789 -244.80406493 137.1960804 -242.875 129.3125 C-242.66077393 128.41764893 -242.44654785 127.52279785 -242.22583008 126.60083008 C-239.86410481 117.34250785 -236.08174255 108.86168648 -231.875 100.3125 C-231.215 100.3125 -230.555 100.3125 -229.875 100.3125 C-229.63136719 99.45269531 -229.38773438 98.59289062 -229.13671875 97.70703125 C-227.75506248 93.98981981 -225.9796359 91.23108313 -223.6875 88 C-223.29038818 87.43966064 -222.89327637 86.87932129 -222.48413086 86.30200195 C-221.29194516 84.63064885 -220.08669023 82.96975352 -218.875 81.3125 C-218.18921875 80.3740625 -217.5034375 79.435625 -216.796875 78.46875 C-213.35588871 73.90004552 -213.35588871 73.90004552 -211.875 72.3125 C-211.215 72.3125 -210.555 72.3125 -209.875 72.3125 C-209.66488281 71.7659375 -209.45476562 71.219375 -209.23828125 70.65625 C-207.37972181 67.46101888 -204.79715093 65.2396267 -202.0625 62.8125 C-201.54107422 62.33941406 -201.01964844 61.86632812 -200.48242188 61.37890625 C-195.90500252 57.25294274 -191.38455074 53.5041724 -185.96484375 50.515625 C-183.35555363 49.01345424 -180.84156343 47.38342496 -178.3125 45.75 C-168.25563305 39.3125 -168.25563305 39.3125 -164.875 39.3125 C-164.875 38.6525 -164.875 37.9925 -164.875 37.3125 C-146.19809436 27.59443528 -125.66066854 21.47283908 -104.875 18.3125 C-103.23724609 18.04651001 -103.23724609 18.04651001 -101.56640625 17.77514648 C-90.41799823 16.14957642 -79.38949182 16.03874219 -68.13671875 16.10668945 C-64.98429341 16.12509169 -61.83216135 16.12719735 -58.6796875 16.12695312 C-56.64322666 16.13186535 -54.60676778 16.13769237 -52.5703125 16.14453125 C-51.18091965 16.14620049 -51.18091965 16.14620049 -49.76345825 16.14790344 C-43.74912837 16.19108545 -37.84804944 16.61068505 -31.875 17.3125 C-31.70677734 16.61656738 -31.53855469 15.92063477 -31.36523438 15.20361328 C-29.83221827 9.08979905 -27.91816367 4.28757006 -22.875 0.3125 C-15.68333601 -3.66909175 -7.33085129 -3.7280825 0 0 Z " fill="#DD2F44" transform="translate(358.875,3.6875)"/>
<path d="M0 0 C0 3 0 3 -2.3125 5.375 C-3.6428125 6.674375 -3.6428125 6.674375 -5 8 C-7.68784133 11.7828878 -8.85767195 15.51855919 -10 20 C-10.66 20 -11.32 20 -12 20 C-12.10845027 23.04263267 -12.18752063 26.08136204 -12.25 29.125 C-12.28351563 29.9809375 -12.31703125 30.836875 -12.3515625 31.71875 C-12.43774178 37.32040349 -11.88653493 40.64601242 -8 45 C4.56717403 53.93766529 24.2842621 54.68710166 39.17919922 55.95581055 C41.812735 56.18214866 44.44314975 56.43232192 47.07421875 56.68554688 C82.09179698 59.90533497 117.47663528 59.18800258 152.59887695 59.18530273 C157.86681602 59.18522212 163.1346669 59.19207765 168.40258789 59.20581055 C197.2524397 59.27967221 226.06865006 59.07719231 254.90234375 58.11328125 C256.70747531 58.05486085 256.70747531 58.05486085 258.54907417 57.99526024 C278.97138011 57.31717429 299.48648032 56.37232834 319.6875 53.125 C320.77345459 52.95210449 321.85940918 52.77920898 322.97827148 52.60107422 C334.05871989 50.76391006 345.38742492 48.83911567 354 41 C355.63889879 36.08330362 356.28524594 29.85111326 354.10546875 25.015625 C353.13464595 23.62971542 352.07333461 22.30812655 351 21 C351 20.34 351 19.68 351 19 C368.46412281 23.90220991 386.1588199 34.88893179 396.375 50.0390625 C400.05292275 56.85854427 399.93190981 64.46438445 399 72 C397.80820791 75.72190809 396.18762513 78.77355847 394 82 C393.319375 83.010625 392.63875 84.02125 391.9375 85.0625 C387.68214623 89.79959193 382.13255757 93.29676226 377 97 C375.84371094 97.91652344 375.84371094 97.91652344 374.6640625 98.8515625 C333.42729671 130.53876148 262.2224459 134.51951911 212.21740723 138.80859375 C210.15454468 138.98665973 208.09237432 139.17269526 206.03027344 139.359375 C163.30561658 143.09098007 118.71001093 142.77336367 76 139 C74.47087468 138.86968839 72.9417402 138.73948426 71.41259766 138.609375 C27.3002797 134.79511715 -18.17121661 128.98851214 -59.69287109 112.89355469 C-61.89688696 112.03993585 -64.11135917 111.22316445 -66.33203125 110.4140625 C-74.20735047 107.48653771 -81.14165328 103.85375576 -88 99 C-89.45792969 97.96939453 -89.45792969 97.96939453 -90.9453125 96.91796875 C-93.65251869 94.9723899 -96.33995985 93.00953189 -99 91 C-100.28197266 90.04480469 -100.28197266 90.04480469 -101.58984375 89.0703125 C-104.09977234 86.91429605 -105.81998937 84.78612786 -107.6875 82.0625 C-108.26886719 81.22847656 -108.85023437 80.39445312 -109.44921875 79.53515625 C-113.84046845 72.3565138 -113.91717073 65.17337102 -113 57 C-107.62935384 40.35290818 -92.17745126 31.32839951 -77.45703125 23.62109375 C-72.4505471 21.27342039 -67.33177442 19.38683966 -62.1171875 17.5546875 C-58.94798299 16.41883083 -55.9659393 15.03877517 -52.93359375 13.578125 C-46.23972058 10.49387397 -39.31061815 8.69627225 -32.1875 6.875 C-30.92357422 6.54113281 -29.65964844 6.20726562 -28.35742188 5.86328125 C-5.90450368 0 -5.90450368 0 0 0 Z " fill="#3B88C3" transform="translate(113,370)"/>
<path d="M0 0 C-0.4753367 6.65702496 -1.25935881 12.97905819 -2.9375 19.4375 C-4.41357283 25.38944929 -5.63264299 31.30185803 -6.56640625 37.3671875 C-6.97035103 39.81996932 -7.48561411 42.20797446 -8.0625 44.625 C-9.16913442 49.37394297 -9.61491491 54.14590109 -10 59 C-8.98421875 58.566875 -7.9684375 58.13375 -6.921875 57.6875 C2.23450182 53.92399349 10.86319756 50.61767222 20.73828125 53.9140625 C22.89806843 54.84784296 24.95318768 55.84220717 27 57 C27.13921875 55.85402344 27.2784375 54.70804687 27.421875 53.52734375 C28.9810379 41.09492771 31.17002268 28.78462856 33.625 16.5 C33.95226074 14.86140015 33.95226074 14.86140015 34.28613281 13.18969727 C35.8651262 5.40462141 35.8651262 5.40462141 37 2 C40.65241026 0.78252991 43.6173992 1.20868547 47.359375 1.63671875 C48.09270554 1.71611694 48.82603607 1.79551514 49.58158875 1.87731934 C51.97201468 2.13947347 54.36100021 2.41267197 56.75 2.6875 C57.96419113 2.82413559 57.96419113 2.82413559 59.20291138 2.96353149 C74.26177884 4.66387377 89.14720125 6.98064255 104 10 C104 10.66 104 11.32 104 12 C105.14082031 12.12246094 106.28164063 12.24492187 107.45703125 12.37109375 C135.86958739 15.95617599 174.41488552 30.58949065 192.8125 53.4375 C193.89786831 54.94209825 194.96119472 56.46288457 196 58 C196.50789063 58.72058594 197.01578125 59.44117188 197.5390625 60.18359375 C201.25855612 66.01218571 201.96000946 71.1708418 201 78 C199.16102661 83.2870485 194.83961553 85.64223859 190 88 C181.90049894 91.44228795 173.32683755 92.75437904 164.6875 94.125 C163.70023926 94.28363525 162.71297852 94.44227051 161.69580078 94.60571289 C141.25331886 97.6482628 120.53251712 98.44561634 99.90234375 99.11328125 C98.01810857 99.17627128 98.01810857 99.17627128 96.09580803 99.24053383 C67.23015709 100.18787311 38.3724171 100.27090415 9.49261475 100.19561768 C4.20055478 100.18468689 -1.09148039 100.18520175 -6.38354969 100.18560982 C-81.87015747 100.18441182 -81.87015747 100.18441182 -110.36108398 97.49023438 C-112.99651664 97.24449707 -115.63342933 97.02806747 -118.27148438 96.8125 C-127.40708165 96.01336891 -136.30977137 94.71817014 -145.25390625 92.671875 C-146.09880112 92.48425598 -146.94369598 92.29663696 -147.81419373 92.10333252 C-154.94944785 90.35733604 -161.56907246 87.71098832 -166.54296875 82.1640625 C-168.31080771 78.32505565 -168.43488397 75.5866966 -168.3125 71.375 C-168.28800781 70.08335937 -168.26351562 68.79171875 -168.23828125 67.4609375 C-168.05424857 64.78793825 -167.79258426 62.53884714 -167 60 C-166.34 60 -165.68 60 -165 60 C-164.979375 59.05125 -164.95875 58.1025 -164.9375 57.125 C-164.19066124 51.61423518 -160.57366317 47.10187204 -157 43 C-156.34 43 -155.68 43 -155 43 C-154.979375 42.319375 -154.95875 41.63875 -154.9375 40.9375 C-152.38550003 32.94123343 -143.92394192 28.80119764 -137 25 C-135.32744141 24.03900391 -135.32744141 24.03900391 -133.62109375 23.05859375 C-125.03888714 18.21426589 -116.32801646 14.72044599 -106.96875 11.67138672 C-105.01381793 11.00471222 -103.10925049 10.2543448 -101.19140625 9.48828125 C-69.79367176 -2.36647158 -32.98184975 -0.46463377 0 0 Z " fill="#F3900C" transform="translate(268,330)"/>
<path d="M0 0 C5.09049899 0.62137546 9.37743774 2.15432874 14.0625 4.125 C14.81055908 4.43848389 15.55861816 4.75196777 16.3293457 5.07495117 C50.71910421 19.74316852 80.39282624 47.30796231 95 82 C95.35707031 82.63292969 95.71414063 83.26585938 96.08203125 83.91796875 C101.12499836 92.9632907 103.54025829 103.0096076 106 113 C106.18369141 113.73766602 106.36738281 114.47533203 106.55664062 115.23535156 C111.75650701 137.35032113 114.18306198 174.78222202 102.52734375 195.046875 C99.18888001 199.31601022 95.12603501 202.29132166 90 204 C71.23860114 205.52389525 56.29377167 197.55524532 42 186 C40.33058079 184.33609043 38.6641957 182.66913397 37 181 C33.9880851 178.34291462 30.900036 175.77513135 27.8203125 173.19726562 C23.10440668 169.20881336 23.10440668 169.20881336 22 167 C22.17846931 165.21182551 22.44004352 163.43163255 22.7421875 161.66015625 C22.92136719 160.59732422 23.10054688 159.53449219 23.28515625 158.43945312 C23.47980469 157.32505859 23.67445313 156.21066406 23.875 155.0625 C24.06191406 153.95197266 24.24882812 152.84144531 24.44140625 151.69726562 C25.85017469 143.44947593 25.85017469 143.44947593 27 140 C27.3615385 137.43324187 27.68444098 134.87588488 27.97265625 132.30078125 C28.06038803 131.52628632 28.14811981 130.75179138 28.23851013 129.9538269 C35.19252173 69.21141126 35.19252173 69.21141126 14.80859375 13.3737793 C12.42544522 10.41540377 9.98152468 7.98706728 6.875 5.8125 C4.35076151 4.02981796 2.13064418 2.24313161 0 0 Z " fill="#FEE6B5" transform="translate(356,29)"/>
<path d="M0 0 C1.66144596 0.0151011 3.32290547 0.02877974 4.984375 0.04101562 C8.98992862 0.07352989 12.99480673 0.12499898 17 0.1875 C14.86897997 1.26596625 12.7526822 2.29298539 10.5546875 3.23046875 C-10.45270532 12.20301408 -23.33205822 29.04327936 -34.875 48 C-35.41096802 48.87845581 -35.41096802 48.87845581 -35.95776367 49.7746582 C-38.70896509 54.4154032 -40.87340738 59.23509841 -43 64.1875 C-43.72732329 65.8361764 -44.45520151 67.48460809 -45.18359375 69.1328125 C-52.14621147 85.06001034 -57.30589236 100.86279099 -61.5703125 117.70703125 C-62.49872263 121.35394229 -63.52097218 124.95176871 -64.6328125 128.546875 C-65.66557878 131.91588279 -66.35808207 135.11502917 -66.75 138.625 C-67.51481617 142.78899914 -67.51481617 142.78899914 -69.57421875 144.48046875 C-72.42128293 145.75179929 -74.89435436 146.1875 -78 146.1875 C-78 146.8475 -78 147.5075 -78 148.1875 C-87.77555065 150.98525375 -97.49962124 153.47598986 -107.5625 155 C-108.3575293 155.1235083 -109.15255859 155.2470166 -109.97167969 155.37426758 C-121.48905775 157.00881426 -134.35867405 157.52264513 -144.28125 150.609375 C-151.0653453 144.99707798 -153.05167661 139.08831421 -154.046875 130.58984375 C-153.99357247 127.85808897 -153.29146033 126.5621206 -152 124.1875 C-151.56611324 122.53033251 -151.17508426 120.86171458 -150.8125 119.1875 C-144.69902549 94.27963108 -133.52020802 70.97438752 -115.84765625 52.2109375 C-113.84811631 50.12372711 -113.84811631 50.12372711 -112 47.1875 C-111.34 47.1875 -110.68 47.1875 -110 47.1875 C-109.66355469 46.35412109 -109.66355469 46.35412109 -109.3203125 45.50390625 C-101.16496897 31.19586272 -77.09637031 16.93697501 -61.89453125 11.859375 C-59.84098682 11.1311077 -57.95639331 10.20793269 -56 9.25 C-49.31933359 6.24771081 -42.13607194 4.71665827 -35 3.1875 C-33.86965332 2.9294458 -32.73930664 2.6713916 -31.57470703 2.40551758 C-20.98423371 0.1088537 -10.80342604 -0.1738608 0 0 Z " fill="#FEE6B5" transform="translate(316,23.8125)"/>
<path d="M0 0 C6.6205516 0.52354712 12.32666615 1.8111498 18.5625 4.0625 C19.43165039 4.37268066 20.30080078 4.68286133 21.19628906 5.00244141 C29.47978113 8.04012625 37.26346274 11.77795586 45 16 C45.67015137 16.36383789 46.34030273 16.72767578 47.03076172 17.10253906 C51.72758928 19.66647007 56.374514 22.30980276 61 25 C62.09957031 25.63550781 63.19914062 26.27101563 64.33203125 26.92578125 C79.06954722 35.70287153 91.62276082 46.01101589 103.453125 58.3894043 C105.60181277 60.62660335 107.8048156 62.80854257 110 65 C121.63650432 76.90654978 130.13112285 90.93142471 137 106 C137.28214355 106.61117676 137.56428711 107.22235352 137.85498047 107.85205078 C141.60547728 116.0359575 144.7499783 124.27991592 147 133 C147.45052734 134.71703125 147.45052734 134.71703125 147.91015625 136.46875 C152.76467372 158.68663461 153.26625682 188.10443693 142.6953125 208.58203125 C140.31401025 211.97840473 137.88127374 214.55503786 133.75390625 215.53125 C128.31981424 215.45375849 125.33414442 214.54611817 121 211 C120.05125 210.29875 119.1025 209.5975 118.125 208.875 C117.073125 207.946875 117.073125 207.946875 116 207 C116 206.34 116 205.68 116 205 C115.34 205 114.68 205 114 205 C111.61933451 202.37144597 109.46519803 199.59389558 107.265625 196.8125 C105.55870032 194.69355901 103.84182832 192.80121715 101.9375 190.875 C98.7829798 186.19409906 99.45560248 181.90781695 100.46704102 176.50537109 C100.64420654 175.60383301 100.82137207 174.70229492 101.00390625 173.7734375 C102.35165153 165.78205777 102.3959488 157.82798432 102.375 149.75 C102.37445618 148.96030823 102.37391235 148.17061646 102.37335205 147.35699463 C102.30199273 124.73152259 99.32763386 101.79706254 88.3984375 81.609375 C87.27476335 79.51268692 86.23787576 77.41667225 85.2265625 75.265625 C81.01251849 66.37544746 76.28580965 58.63204586 70 51 C69.55188965 50.45182617 69.1037793 49.90365234 68.64208984 49.33886719 C59.69248061 38.42350151 50.39242194 29.3369831 39 21 C38.03964844 20.29488281 37.07929688 19.58976562 36.08984375 18.86328125 C25.06359802 11.14339256 12.57754923 5.69726654 0 1 C0 0.67 0 0.34 0 0 Z " fill="#DD2E44" transform="translate(362,30)"/>
<path d="M0 0 C3.16341121 0.01842191 6.32653055 0.02050778 9.48999023 0.02026367 C11.52970628 0.02517508 13.56942037 0.03100175 15.60913086 0.0378418 C16.54055405 0.03895462 17.47197723 0.04006744 18.43162537 0.04121399 C24.0956635 0.0818775 29.58717133 0.4890137 35.20678711 1.20581055 C35.20678711 1.53581055 35.20678711 1.86581055 35.20678711 2.20581055 C34.32007324 2.26115967 33.43335938 2.31650879 32.51977539 2.37353516 C29.18357918 2.58267309 25.84749683 2.7934825 22.51147461 3.00537109 C21.07629454 3.0961951 19.64107392 3.18638097 18.20581055 3.27587891 C10.19052341 3.77613567 2.19009723 4.31222823 -5.79321289 5.20581055 C-5.79321289 5.86581055 -5.79321289 6.52581055 -5.79321289 7.20581055 C-6.8927832 7.4481543 -7.99235352 7.69049805 -9.12524414 7.94018555 C-23.16030381 10.85459202 -23.16030381 10.85459202 -36.15258789 16.6394043 C-39.2567128 18.4807565 -42.47424556 19.79110972 -45.79321289 21.20581055 C-63.0540657 30.08223485 -78.37560244 42.25619276 -90.79321289 57.20581055 C-91.5627832 58.07592773 -92.33235352 58.94604492 -93.12524414 59.8425293 C-107.85053441 76.78452993 -118.64785666 98.32609763 -123.77368164 120.2175293 C-126.25341855 130.5804473 -126.25341855 130.5804473 -130.16821289 133.14331055 C-131.69419962 133.86494539 -133.2389708 134.54723339 -134.79321289 135.20581055 C-136.49606394 136.09434178 -138.19871213 136.98328945 -139.89746094 137.87963867 C-149.93390343 143.08698718 -159.21123658 147.12057276 -170.79321289 145.20581055 C-174.27533566 143.12938078 -175.46802535 140.30644529 -176.60571289 136.45581055 C-177.07201917 128.37316843 -176.72227782 121.08939094 -174.79321289 113.20581055 C-174.57898682 112.31095947 -174.36476074 111.4161084 -174.14404297 110.49414062 C-171.7823177 101.23581839 -167.99995544 92.75499703 -163.79321289 84.20581055 C-163.13321289 84.20581055 -162.47321289 84.20581055 -161.79321289 84.20581055 C-161.54958008 83.34600586 -161.30594727 82.48620117 -161.05493164 81.6003418 C-159.67327537 77.88313036 -157.89784879 75.12439368 -155.60571289 71.89331055 C-155.20860107 71.33297119 -154.81148926 70.77263184 -154.40234375 70.1953125 C-153.21015805 68.5239594 -152.00490312 66.86306407 -150.79321289 65.20581055 C-150.10743164 64.26737305 -149.42165039 63.32893555 -148.71508789 62.36206055 C-145.2741016 57.79335606 -145.2741016 57.79335606 -143.79321289 56.20581055 C-143.13321289 56.20581055 -142.47321289 56.20581055 -141.79321289 56.20581055 C-141.5830957 55.65924805 -141.37297852 55.11268555 -141.15649414 54.54956055 C-139.2979347 51.35432942 -136.71536382 49.13293725 -133.98071289 46.70581055 C-133.45928711 46.23272461 -132.93786133 45.75963867 -132.40063477 45.2722168 C-127.82321541 41.14625328 -123.30276363 37.39748295 -117.88305664 34.40893555 C-115.27376652 32.90676478 -112.75977632 31.2767355 -110.23071289 29.64331055 C-100.17384594 23.20581055 -100.17384594 23.20581055 -96.79321289 23.20581055 C-96.79321289 22.54581055 -96.79321289 21.88581055 -96.79321289 21.20581055 C-78.1161956 11.48768773 -57.57892422 5.366442 -36.79321289 2.20581055 C-35.70210205 2.02848389 -34.61099121 1.85115723 -33.48681641 1.66845703 C-22.3199391 0.0394592 -11.27142906 -0.06792675 0 0 Z " fill="#DD2E44" transform="translate(290.793212890625,19.794189453125)"/>
<path d="M0 0 C3.37141562 0.51130474 6.68309528 1.13778357 9.99609375 1.9375 C10.72119141 2.11023438 11.44628906 2.28296875 12.19335938 2.4609375 C13.65623653 2.81233358 15.11731069 3.17134954 16.57617188 3.5390625 C23.97586491 5.27407364 31.43183857 5.6185491 39 6 C33.01458361 38.09815679 26.99940942 70.18999054 20.8125 102.25 C20.57493988 103.48281708 20.33737976 104.71563416 20.09262085 105.98580933 C19.42383632 109.45435599 18.75333697 112.92256551 18.08203125 116.390625 C17.88465363 117.41372269 17.687276 118.43682037 17.48391724 119.49092102 C17.21114456 120.89582039 17.21114456 120.89582039 16.93286133 122.32910156 C16.77586258 123.13978088 16.61886383 123.95046021 16.45710754 124.78570557 C16.02598224 126.87413831 15.53381927 128.9356849 15 131 C14.34 131 13.68 131 13 131 C12.90203125 131.62261719 12.8040625 132.24523437 12.703125 132.88671875 C11.59382323 139.74335124 10.32405773 146.55701794 9 153.375 C7.59889927 160.59842415 6.41114985 167.79616318 5.4375 175.08984375 C4.87696612 178.81839502 4.01596593 182.37155024 3 186 C2.48953125 185.7834375 1.9790625 185.566875 1.453125 185.34375 C-9.24352378 181.24716111 -17.90677215 182.37750057 -28.28515625 186.90625 C-31 188 -31 188 -34 188 C-34.40152513 181.27817196 -33.55311035 175.58913234 -31.78515625 169.109375 C-31.0129807 166.05140616 -30.50223739 163.05923934 -30.0625 159.9375 C-29.41625794 155.40842026 -28.59441981 150.96535464 -27.6113987 146.50065708 C-26.00499273 139.18223846 -24.64750648 131.91448243 -23.67431641 124.48461914 C-21.95514297 111.98339837 -19.56049545 99.62890022 -17.1484375 87.24609375 C-16.68388346 84.84196295 -16.21974966 82.43775092 -15.75601196 80.03346252 C-14.7925402 75.04360338 -13.82586221 70.05438133 -12.85644531 65.06567383 C-11.61361661 58.66993584 -10.37623659 52.27315964 -9.14087486 45.87597561 C-7.9575542 39.74902723 -6.77197839 33.62251606 -5.5859375 27.49609375 C-5.36061718 26.33162657 -5.13529686 25.16715939 -4.90314865 23.96740532 C-4.26787818 20.6869334 -3.63104709 17.40676874 -2.99365234 14.12670898 C-2.80559525 13.15485153 -2.61753815 12.18299408 -2.42378235 11.1816864 C-2.16317772 9.84324677 -2.16317772 9.84324677 -1.89730835 8.47776794 C-1.67224389 7.31850626 -1.67224389 7.31850626 -1.44263268 6.13582516 C-1.01537331 4.07418048 -0.52606412 2.03844677 0 0 Z " fill="#66757E" transform="translate(292,201)"/>
<path d="M0 0 C0.33 0.66 0.66 1.32 1 2 C0.67 2.99 0.34 3.98 0 5 C-0.66 5 -1.32 5 -2 5 C-2.10845027 8.04263267 -2.18752063 11.08136204 -2.25 14.125 C-2.28351563 14.9809375 -2.31703125 15.836875 -2.3515625 16.71875 C-2.43774178 22.32040349 -1.88653493 25.64601242 2 30 C14.56717403 38.93766529 34.2842621 39.68710166 49.17919922 40.95581055 C51.812735 41.18214866 54.44314975 41.43232192 57.07421875 41.68554688 C92.09179698 44.90533497 127.47663528 44.18800258 162.59887695 44.18530273 C167.86681602 44.18522212 173.1346669 44.19207765 178.40258789 44.20581055 C207.2524397 44.27967221 236.06865006 44.07719231 264.90234375 43.11328125 C266.70747531 43.05486085 266.70747531 43.05486085 268.54907417 42.99526024 C288.97138011 42.31717429 309.48648032 41.37232834 329.6875 38.125 C330.77345459 37.95210449 331.85940918 37.77920898 332.97827148 37.60107422 C344.05871989 35.76391006 355.38742492 33.83911567 364 26 C365.63889879 21.08330362 366.28524594 14.85111326 364.10546875 10.015625 C363.13464595 8.62971542 362.07333461 7.30812655 361 6 C361 5.34 361 4.68 361 4 C366.05830117 5.29398402 368.47835575 7.20746004 372 11 C372.9075 11.680625 373.815 12.36125 374.75 13.0625 C377.25376187 15.21851717 377.73184943 15.78219314 378 19 C378.40268256 28.45345256 378.40268256 28.45345256 374.5625 32.6875 C372 35 372 35 370 35 C370 35.66 370 36.32 370 37 C347.02238098 49.60405604 320.88303434 52.06251097 295.09057617 53.95581055 C291.93375991 54.18777482 288.77846551 54.4353493 285.62304688 54.68554688 C283.52871565 54.84726089 281.43431644 55.00809741 279.33984375 55.16796875 C278.44015366 55.23775436 277.54046356 55.30753998 276.61351013 55.37944031 C255.93789442 56.88433502 235.2632359 57.17374763 214.54179192 57.20018864 C212.30722198 57.2031738 210.07265655 57.20728732 207.83808899 57.21169281 C200.75647819 57.22530049 193.67487845 57.23499501 186.59325552 57.2388947 C179.37916845 57.24289571 172.16521441 57.25507891 164.95117188 57.28125 C48.81869032 57.69330346 48.81869032 57.69330346 8 46 C7.33452148 45.81324707 6.66904297 45.62649414 5.98339844 45.43408203 C-5.01549508 42.29340892 -13.15119218 38.33928339 -20 29 C-21.46399855 24.60800434 -21.71241019 20.58177532 -21 16 C-17.01653885 8.21552629 -7.64747371 3.52960325 0 0 Z " fill="#88C7F4" transform="translate(103,385)"/>
<path d="M0 0 C2.76136314 1.52156745 5.42939077 3.10028334 8.06640625 4.828125 C10.82118609 6.32838069 12.96417323 6.73770915 16.0625 7.125 C20.54312859 7.86270133 23.54702247 8.54813057 26.5625 12.1875 C26.875 14.9375 26.875 14.9375 26.5625 17.1875 C17.34729383 22.9799153 5.18351404 22.49699859 -5.3515625 22.48828125 C-7.11601212 22.49470894 -7.11601212 22.49470894 -8.91610718 22.50126648 C-11.38156495 22.50696423 -13.84703952 22.50754406 -16.3125 22.50317383 C-20.06018864 22.50000196 -23.80709534 22.52357283 -27.5546875 22.54882812 C-29.96614485 22.55110057 -32.3776043 22.55180487 -34.7890625 22.55078125 C-36.44731552 22.56459587 -36.44731552 22.56459587 -38.1390686 22.57868958 C-44.49742645 22.54126825 -50.00902162 21.78206074 -56.08529663 19.87980652 C-58.24082281 19.24538653 -60.20868234 18.9094471 -62.4375 18.6875 C-65.4375 18.1875 -65.4375 18.1875 -67.4375 16.875 C-68.4375 15.1875 -68.4375 15.1875 -68.21484375 13.21630859 C-66.98149955 9.99737319 -64.82552181 9.41540333 -61.80859375 8.04003906 C-57.76811358 6.58726345 -53.68567096 6.06455657 -49.4375 5.5625 C-40.86981429 4.47206727 -33.16490192 3.06028392 -25.1875 -0.4375 C-16.00578334 -3.98522212 -8.94053654 -4.37190051 0 0 Z " fill="#FDAA31" transform="translate(292.4375,385.8125)"/>
<path d="M0 0 C4.23498768 3.13389088 6.46600581 6.33551742 8.125 11.3125 C8.21851969 12.9353417 8.25494081 14.56197341 8.25 16.1875 C8.25386719 17.45207031 8.25386719 17.45207031 8.2578125 18.7421875 C8.12289863 21.35316769 7.70015671 23.76537742 7.125 26.3125 C5.43835214 26.3948499 3.75048293 26.4522912 2.0625 26.5 C0.65291016 26.55220703 0.65291016 26.55220703 -0.78515625 26.60546875 C-3.875 26.3125 -3.875 26.3125 -7.17578125 24.81640625 C-11.67238918 22.98832383 -15.21423632 22.93551456 -20 23.0625 C-21.17755859 23.07023437 -21.17755859 23.07023437 -22.37890625 23.078125 C-26.32860932 23.13140936 -30.02100978 23.35287191 -33.875 24.3125 C-32.875 22.3125 -32.875 22.3125 -29.875 21.3125 C-34.21256144 21.28744299 -38.55008251 21.26947441 -42.88769531 21.25756836 C-44.35775488 21.25259544 -45.82780965 21.24581473 -47.29785156 21.23706055 C-56.20406499 21.18542152 -65.00671416 21.3693142 -73.875 22.3125 C-70.41446754 20.00547836 -67.58209892 19.67886837 -63.5625 19.25 C-62.83426025 19.16766113 -62.10602051 19.08532227 -61.35571289 19.00048828 C-51.56151163 17.96844412 -41.71322241 17.650187 -31.875 17.3125 C-31.6888916 16.63630615 -31.5027832 15.9601123 -31.31103516 15.26342773 C-31.05628418 14.37083252 -30.8015332 13.4782373 -30.5390625 12.55859375 C-30.2910791 11.6761499 -30.0430957 10.79370605 -29.78759766 9.88452148 C-28.07282514 5.05168883 -25.32879079 1.67101636 -20.8359375 -0.81640625 C-13.93821136 -3.5340616 -6.65047944 -3.38208143 0 0 Z " fill="#66757F" transform="translate(358.875,3.6875)"/>
<path d="M0 0 C0 0.33 0 0.66 0 1 C-1.75376953 1.09087891 -1.75376953 1.09087891 -3.54296875 1.18359375 C-5.09115614 1.26804034 -6.63933268 1.35268625 -8.1875 1.4375 C-8.95642578 1.47681641 -9.72535156 1.51613281 -10.51757812 1.55664062 C-14.43251075 1.77507034 -18.17120688 2.08692108 -22 3 C-21 1 -21 1 -18 0 C-22.33756144 -0.02505701 -26.67508251 -0.04302559 -31.01269531 -0.05493164 C-32.48275488 -0.05990456 -33.95280965 -0.06668527 -35.42285156 -0.07543945 C-44.32906499 -0.12707848 -53.13171416 0.0568142 -62 1 C-46.96780635 -9.02146243 -16.57213097 -3.24867912 0 0 Z " fill="#EF9482" transform="translate(347,25)"/>
<path d="M0 0 C8.54011956 0.44947998 16.01533633 3.14908583 24 6 C23.01 6.495 23.01 6.495 22 7 C22.33 7.99 22.66 8.98 23 10 C17.98534591 8.50915689 13.37196892 6.3657537 8.63671875 4.17578125 C5.8099511 2.91525227 2.96676839 1.88201223 0 1 C0 0.67 0 0.34 0 0 Z " fill="#DF404E" transform="translate(362,30)"/>
<path d="M0 0 C0.66 0.33 1.32 0.66 2 1 C-6.25 9.25 -14.5 17.5 -23 26 C-23 22.25983417 -22.0658409 21.54723807 -19.625 18.8125 C-18.99851563 18.09707031 -18.37203125 17.38164063 -17.7265625 16.64453125 C-16 15 -16 15 -14 15 C-13.79632813 14.45859375 -13.59265625 13.9171875 -13.3828125 13.359375 C-11.44687192 10.05624474 -8.71300664 7.75877153 -5.875 5.25 C-5.31167969 4.74339844 -4.74835938 4.23679687 -4.16796875 3.71484375 C-2.78348469 2.47115468 -1.39238512 1.23483695 0 0 Z " fill="#F8C39F" transform="translate(220,56)"/>
<path d="M0 0 C6.28260706 -0.23268915 11.88019467 0.59545452 18 2 C18 2.33 18 2.66 18 3 C16.83082031 3.06058594 15.66164063 3.12117188 14.45703125 3.18359375 C12.90884386 3.26804034 11.36066732 3.35268625 9.8125 3.4375 C9.04357422 3.47681641 8.27464844 3.51613281 7.48242188 3.55664062 C3.56748925 3.77507034 -0.17120688 4.08692108 -4 5 C-3 3 -3 3 0 1 C0 0.67 0 0.34 0 0 Z " fill="#CE867D" transform="translate(329,23)"/>
<path d="M0 0 C5.75 0.75 5.75 0.75 8 3 C9.02304948 4.65261839 10.02616054 6.31791365 11 8 C6.99698968 6.23867546 3.3971023 3.73867517 0 1 C0 0.67 0 0.34 0 0 Z " fill="#F3B596" transform="translate(356,29)"/>
<path d="M0 0 C2.97 0.33 5.94 0.66 9 1 C9 1.66 9 2.32 9 3 C9.99 3.33 10.98 3.66 12 4 C10 5 10 5 7.6171875 4.22265625 C6.71226562 3.83980469 5.80734375 3.45695312 4.875 3.0625 C3.50988281 2.49208984 3.50988281 2.49208984 2.1171875 1.91015625 C1.41851562 1.60980469 0.71984375 1.30945313 0 1 C0 0.67 0 0.34 0 0 Z " fill="#DF6566" transform="translate(362,30)"/>
<path d="M0 0 C4.71403788 0.47939368 8.66579301 0.96834048 13 3 C9.84876177 4.57561912 7.37430208 3.69813146 4 3 C1.5625 1.4375 1.5625 1.4375 0 0 Z " fill="#A97B7B" transform="translate(348,26)"/>
</svg>
