<?xml version="1.0" standalone="no"?><!DOCTYPE svg PUBLIC "-//W3C//DTD SVG 1.1//EN" "http://www.w3.org/Graphics/SVG/1.1/DTD/svg11.dtd"><svg height="1024" node-id="1" sillyvg="true" template-height="1024" template-width="1024" version="1.1" viewBox="0 0 1024 1024" width="1024" xmlns="http://www.w3.org/2000/svg" xmlns:xlink="http://www.w3.org/1999/xlink"><defs node-id="30"><linearGradient gradientUnits="objectBoundingBox" id="SVGID_1_" node-id="6" spreadMethod="pad" x1="651.6523" x2="651.6523" y1="93.7185" y2="608.194"><stop offset="0" stop-color="#39c2ff"></stop><stop offset="1" stop-color="#236ffb" stop-opacity="0"></stop></linearGradient><linearGradient gradientUnits="objectBoundingBox" id="SVGID_2_" node-id="10" spreadMethod="pad" x1="648.4899" x2="648.4899" y1="93.7185" y2="608.194"><stop offset="0" stop-color="#39c2ff"></stop><stop offset="1" stop-color="#236ffb" stop-opacity="0"></stop></linearGradient><linearGradient gradientUnits="objectBoundingBox" id="SVGID_3_" node-id="18" spreadMethod="pad" x1="178.9745" x2="545.7114" y1="413.6335" y2="851.6804"><stop offset="0" stop-color="#39c2ff"></stop><stop offset="1" stop-color="#236ffb"></stop></linearGradient><linearGradient gradientUnits="objectBoundingBox" id="SVGID_4_" node-id="24" spreadMethod="pad" x1="1004.3676" x2="813.621" y1="684.0839" y2="883.4355"><stop offset="0" stop-color="#236ffb"></stop><stop offset="1" stop-color="#236ffb" stop-opacity="0"></stop></linearGradient></defs><g node-id="87"><path d="M 849.10 569.50 L 750.00 569.50 L 716.90 524.70 L 586.50 524.70 L 553.40 569.50 L 454.30 569.50 L 451.00 569.80 L 448.00 570.60 L 445.20 572.00 L 442.60 573.80 L 440.50 575.90 L 438.70 578.50 L 437.30 581.30 L 436.50 584.30 L 436.20 587.60 L 436.50 590.90 L 437.30 593.90 L 438.70 596.70 L 440.50 599.30 L 442.60 601.40 L 445.20 603.20 L 448.00 604.60 L 451.00 605.40 L 454.30 605.70 L 849.10 605.70 L 852.40 605.40 L 855.40 604.60 L 858.20 603.20 L 860.80 601.40 L 862.90 599.30 L 864.70 596.70 L 866.10 593.90 L 866.90 590.90 L 867.20 587.60 L 866.90 584.30 L 866.00 581.30 L 864.70 578.50 L 862.90 575.90 L 860.70 573.80 L 858.20 572.00 L 855.40 570.60 L 852.40 569.80 L 849.10 569.50 Z" fill="url(#SVGID_1_)" fill-opacity="0.5" fill-rule="nonzero" group-id="1" node-id="61" stroke="none" target-height="81" target-width="431" target-x="436.2" target-y="524.7"></path><path d="M 928.30 63.90 L 368.70 63.90 L 364.60 64.10 L 356.80 65.70 L 349.70 68.70 L 343.30 73.00 L 337.90 78.40 L 335.60 81.50 L 331.90 88.30 L 329.60 95.70 L 328.80 103.80 L 328.80 465.40 L 329.00 469.50 L 330.60 477.30 L 333.60 484.40 L 337.90 490.80 L 343.30 496.20 L 349.70 500.50 L 356.80 503.50 L 364.60 505.10 L 368.70 505.30 L 928.30 505.30 L 932.40 505.10 L 940.20 503.50 L 947.30 500.50 L 953.70 496.20 L 959.10 490.80 L 961.40 487.70 L 965.10 480.90 L 966.40 477.30 L 967.40 473.50 L 968.20 465.40 L 968.20 103.80 L 968.00 99.60 L 966.40 91.90 L 963.40 84.70 L 959.10 78.40 L 953.70 73.00 L 947.30 68.70 L 940.20 65.70 L 932.40 64.10 L 928.30 63.90 Z" fill="url(#SVGID_2_)" fill-opacity="0.5" fill-rule="nonzero" group-id="1" node-id="63" stroke="none" target-height="441.4" target-width="639.4" target-x="328.8" target-y="63.9"></path></g><g node-id="88"><path d="M 681.20 157.00 L 677.60 156.40 L 674.10 156.40 L 670.70 157.10 L 667.40 158.30 L 664.50 160.00 L 661.80 162.20 L 659.60 164.90 L 657.90 167.90 L 656.60 171.40 L 599.70 387.60 L 599.10 391.30 L 599.10 394.80 L 599.80 398.20 L 601.00 401.40 L 602.70 404.30 L 604.90 407.00 L 607.60 409.20 L 610.60 410.90 L 614.10 412.20 L 619.20 412.90 L 622.20 412.70 L 625.00 412.00 L 627.70 411.00 L 630.20 409.60 L 632.50 407.90 L 634.60 405.80 L 636.30 403.40 L 637.70 400.80 L 638.70 397.90 L 695.60 181.70 L 696.20 178.00 L 696.20 174.50 L 695.50 171.10 L 694.30 167.90 L 692.60 164.90 L 690.40 162.20 L 687.70 160.00 L 684.70 158.30 L 681.20 157.00 Z" fill="#ffffff" fill-opacity="0.8" fill-rule="nonzero" group-id="2" node-id="68" stroke="none" target-height="256.5" target-width="97.10004" target-x="599.1" target-y="156.4"></path><path d="M 553.90 185.90 L 474.50 265.30 L 472.20 268.00 L 470.50 270.90 L 469.40 274.00 L 468.70 277.30 L 468.60 280.50 L 469.10 283.90 L 470.00 287.00 L 471.50 290.00 L 473.60 292.90 L 543.60 372.30 L 545.80 374.40 L 548.10 376.10 L 550.60 377.40 L 553.20 378.30 L 558.70 379.10 L 562.20 378.80 L 565.70 377.80 L 570.00 375.60 L 572.00 374.10 L 574.50 371.40 L 576.40 368.50 L 577.80 365.30 L 578.60 361.90 L 578.80 358.50 L 578.40 355.10 L 577.50 351.80 L 576.00 348.70 L 573.80 345.70 L 516.30 280.50 L 582.30 214.50 L 584.70 211.60 L 586.40 208.60 L 587.60 205.40 L 588.20 201.90 L 588.20 198.60 L 587.60 195.10 L 586.40 191.90 L 584.70 188.90 L 582.30 186.00 L 579.50 183.60 L 576.50 181.80 L 573.20 180.70 L 569.80 180.10 L 566.40 180.10 L 563.00 180.60 L 559.80 181.80 L 556.80 183.50 L 553.90 185.90 Z" fill="#ffffff" fill-opacity="0.8" fill-rule="nonzero" group-id="2" node-id="70" stroke="none" target-height="199" target-width="119.600006" target-x="468.6" target-y="180.1"></path><path d="M 823.30 266.20 L 753.30 186.80 L 750.60 184.30 L 747.70 182.30 L 744.50 181.00 L 741.10 180.20 L 737.70 180.00 L 734.30 180.40 L 731.00 181.30 L 727.90 182.80 L 724.90 185.00 L 722.40 187.70 L 720.40 190.60 L 719.10 193.80 L 718.30 197.20 L 718.10 200.60 L 718.50 204.00 L 719.40 207.30 L 720.90 210.40 L 723.10 213.40 L 780.60 278.60 L 714.60 344.60 L 712.20 347.50 L 710.50 350.50 L 709.30 353.70 L 708.70 357.20 L 708.70 360.50 L 709.30 364.00 L 710.50 367.20 L 712.20 370.20 L 714.60 373.10 L 718.90 376.40 L 721.30 377.50 L 726.20 378.80 L 731.40 378.80 L 736.40 377.50 L 740.90 374.90 L 743.00 373.10 L 822.40 293.70 L 824.70 291.00 L 826.40 288.10 L 827.60 285.00 L 828.20 281.70 L 828.30 278.50 L 827.90 275.20 L 826.90 272.00 L 825.40 269.00 L 823.30 266.20 Z" fill="#ffffff" fill-opacity="0.8" fill-rule="nonzero" group-id="2" node-id="72" stroke="none" target-height="198.79999" target-width="119.599976" target-x="708.7" target-y="180"></path></g><path d="M 645.50 701.30 L 595.00 701.30 L 591.00 714.70 L 583.70 736.20 L 578.00 749.60 L 574.90 755.40 L 613.10 792.80 L 617.60 799.30 L 619.40 802.90 L 620.80 806.70 L 621.80 810.50 L 622.40 814.50 L 622.60 818.60 L 622.40 822.70 L 621.80 826.70 L 619.40 834.30 L 617.70 837.90 L 615.60 841.30 L 613.10 844.40 L 580.70 876.20 L 577.40 879.00 L 574.00 881.40 L 566.80 885.10 L 562.90 886.50 L 555.10 887.90 L 547.10 887.90 L 539.30 886.50 L 531.70 883.50 L 528.20 881.40 L 524.80 879.00 L 521.50 876.20 L 486.10 841.80 L 478.60 845.80 L 463.10 852.90 L 455.20 856.00 L 439.00 861.30 L 439.00 921.90 L 438.80 926.10 L 438.10 930.20 L 437.10 934.10 L 433.90 941.60 L 429.50 948.20 L 426.80 951.30 L 423.80 954.00 L 417.20 958.60 L 413.50 960.40 L 409.70 961.90 L 405.70 962.90 L 401.60 963.60 L 397.30 963.80 L 348.70 963.80 L 344.40 963.50 L 340.30 962.80 L 336.30 961.80 L 332.50 960.40 L 328.90 958.60 L 322.30 954.10 L 316.60 948.40 L 312.10 941.80 L 309.00 934.30 L 307.90 930.30 L 307.30 926.20 L 307.00 921.90 L 307.00 861.30 L 298.40 858.60 L 290.80 855.70 L 283.60 852.50 L 261.70 840.80 L 225.30 876.20 L 222.00 879.00 L 218.60 881.40 L 215.10 883.50 L 211.40 885.10 L 203.70 887.40 L 195.70 888.10 L 191.70 887.90 L 183.90 886.50 L 176.30 883.50 L 172.80 881.40 L 169.40 879.00 L 166.10 876.20 L 133.70 844.40 L 129.20 837.90 L 127.40 834.30 L 126.00 830.50 L 125.00 826.70 L 124.40 822.70 L 124.20 818.60 L 124.40 814.50 L 125.00 810.50 L 126.00 806.70 L 127.40 802.90 L 129.10 799.30 L 131.20 795.90 L 133.70 792.80 L 173.50 753.80 L 170.60 748.20 L 165.10 735.50 L 158.20 715.20 L 154.40 702.40 L 103.90 702.40 L 99.30 702.20 L 94.70 701.50 L 90.10 700.30 L 85.70 698.80 L 81.40 696.90 L 77.20 694.60 L 73.30 692.00 L 69.80 689.00 L 66.50 685.80 L 63.60 682.30 L 61.10 678.60 L 59.10 674.70 L 57.60 670.60 L 56.70 666.30 L 56.40 661.90 L 56.40 619.80 L 56.70 615.40 L 57.60 611.10 L 59.10 607.00 L 61.10 603.10 L 63.60 599.40 L 66.50 595.90 L 69.80 592.70 L 73.40 589.70 L 77.30 587.10 L 81.40 584.80 L 85.70 582.90 L 90.20 581.40 L 94.70 580.20 L 99.30 579.50 L 103.90 579.30 L 154.40 579.30 L 156.40 573.30 L 160.70 563.00 L 163.10 558.40 L 174.50 538.80 L 136.50 501.90 L 131.30 495.80 L 127.40 488.80 L 126.00 485.00 L 125.00 481.20 L 124.40 477.20 L 124.20 473.10 L 124.40 469.00 L 125.00 465.00 L 126.00 461.20 L 127.40 457.40 L 129.10 453.80 L 131.20 450.40 L 133.70 447.30 L 166.10 415.50 L 169.40 412.70 L 172.80 410.30 L 176.30 408.20 L 180.00 406.60 L 187.80 404.30 L 191.70 403.80 L 199.70 403.80 L 207.60 405.20 L 211.40 406.60 L 215.10 408.20 L 218.70 410.30 L 222.00 412.70 L 225.30 415.50 L 263.30 452.50 L 283.30 441.40 L 288.10 439.00 L 298.60 434.80 L 304.80 432.90 L 304.80 373.80 L 305.00 369.60 L 305.60 365.60 L 306.60 361.70 L 308.00 358.00 L 309.70 354.50 L 314.00 348.00 L 319.60 342.50 L 322.70 340.20 L 329.70 336.50 L 333.40 335.10 L 337.40 334.10 L 341.50 333.50 L 345.80 333.30 L 396.30 333.30 L 400.60 333.50 L 404.80 334.10 L 408.80 335.10 L 412.60 336.50 L 419.70 340.20 L 425.80 345.20 L 430.90 351.10 L 434.70 358.00 L 436.10 361.70 L 437.10 365.60 L 437.80 369.60 L 438.00 373.80 L 438.00 432.90 L 446.20 435.30 L 461.80 441.00 L 477.00 447.70 L 484.40 451.50 L 521.50 415.50 L 524.80 412.70 L 528.20 410.30 L 531.70 408.20 L 539.30 405.20 L 547.10 403.80 L 555.10 403.80 L 562.90 405.20 L 566.80 406.60 L 570.50 408.20 L 574.00 410.30 L 577.40 412.70 L 580.70 415.50 L 613.10 447.30 L 617.60 453.80 L 619.40 457.40 L 620.80 461.20 L 621.80 465.00 L 622.40 469.00 L 622.60 473.10 L 622.40 477.20 L 621.80 481.20 L 620.80 485.00 L 619.40 488.80 L 617.70 492.40 L 615.60 495.80 L 613.10 498.90 L 573.90 537.30 L 580.30 548.10 L 588.50 563.20 L 593.10 574.20 L 595.10 580.50 L 645.60 580.50 L 654.10 581.30 L 658.00 582.30 L 661.80 583.70 L 665.50 585.40 L 672.10 589.70 L 677.70 595.20 L 680.10 598.30 L 683.90 605.20 L 685.30 608.90 L 686.30 612.80 L 687.00 616.80 L 687.20 621.00 L 687.20 660.70 L 687.00 664.90 L 686.30 668.90 L 685.30 672.80 L 683.90 676.50 L 682.10 680.10 L 677.70 686.50 L 675.00 689.40 L 668.80 694.30 L 661.70 698.10 L 657.90 699.50 L 649.80 701.10 L 645.50 701.30 Z M 371.80 518.70 L 363.20 519.00 L 354.80 519.80 L 346.70 521.20 L 338.80 523.00 L 330.90 525.40 L 323.40 528.20 L 316.10 531.50 L 309.10 535.20 L 302.30 539.30 L 295.90 543.80 L 289.80 548.70 L 284.00 554.00 L 278.50 559.70 L 273.50 565.60 L 268.80 571.80 L 264.60 578.40 L 260.70 585.20 L 257.40 592.30 L 254.50 599.60 L 252.00 607.20 L 250.10 614.90 L 248.70 622.80 L 247.90 630.90 L 247.60 639.20 L 247.90 647.50 L 248.70 655.70 L 250.10 663.50 L 252.00 671.30 L 254.50 678.80 L 257.40 686.20 L 260.70 693.20 L 264.60 700.10 L 268.80 706.60 L 273.50 712.90 L 278.50 718.80 L 284.00 724.50 L 289.80 729.80 L 295.90 734.70 L 302.30 739.20 L 309.10 743.30 L 316.10 747.00 L 323.40 750.30 L 330.90 753.10 L 338.80 755.50 L 346.70 757.30 L 354.80 758.70 L 363.20 759.50 L 371.80 759.80 L 380.40 759.50 L 388.80 758.70 L 396.90 757.30 L 404.80 755.50 L 412.70 753.10 L 420.20 750.30 L 427.50 747.00 L 434.50 743.30 L 441.30 739.20 L 447.70 734.70 L 453.80 729.80 L 459.60 724.50 L 465.10 718.80 L 470.10 712.90 L 474.80 706.60 L 479.00 700.10 L 482.90 693.20 L 486.20 686.20 L 489.10 678.80 L 491.60 671.30 L 493.50 663.50 L 494.90 655.70 L 495.70 647.50 L 496.00 639.20 L 495.70 630.90 L 494.90 622.80 L 493.50 614.90 L 491.60 607.20 L 489.10 599.60 L 486.20 592.30 L 482.90 585.20 L 479.00 578.40 L 474.80 571.80 L 470.10 565.60 L 465.10 559.70 L 459.60 554.00 L 453.80 548.70 L 447.70 543.80 L 441.30 539.30 L 434.50 535.20 L 427.50 531.50 L 420.20 528.20 L 412.70 525.40 L 404.80 523.00 L 396.90 521.20 L 388.80 519.80 L 380.40 519.00 L 371.80 518.70 Z" fill="url(#SVGID_3_)" fill-rule="nonzero" node-id="75" stroke="none" target-height="630.5" target-width="630.8" target-x="56.4" target-y="333.3"></path><path d="M 371.80 518.70 L 363.20 519.00 L 354.80 519.80 L 346.70 521.20 L 338.80 523.00 L 330.90 525.40 L 323.40 528.20 L 316.10 531.50 L 309.10 535.20 L 302.30 539.30 L 295.90 543.80 L 289.80 548.70 L 284.00 554.00 L 278.50 559.70 L 273.50 565.60 L 268.80 571.80 L 264.60 578.40 L 260.70 585.20 L 257.40 592.30 L 254.50 599.60 L 252.00 607.20 L 250.10 614.90 L 248.70 622.80 L 247.90 630.90 L 247.60 639.20 L 247.90 647.50 L 248.70 655.70 L 250.10 663.50 L 252.00 671.30 L 254.50 678.80 L 257.40 686.20 L 260.70 693.20 L 264.60 700.10 L 268.80 706.60 L 273.50 712.90 L 278.50 718.80 L 284.00 724.50 L 289.80 729.80 L 295.90 734.70 L 302.30 739.20 L 309.10 743.30 L 316.10 747.00 L 323.40 750.30 L 330.90 753.10 L 338.80 755.50 L 346.70 757.30 L 354.80 758.70 L 363.20 759.50 L 371.80 759.80 L 380.40 759.50 L 388.80 758.70 L 396.90 757.30 L 404.80 755.50 L 412.70 753.10 L 420.20 750.30 L 427.50 747.00 L 434.50 743.30 L 441.30 739.20 L 447.70 734.70 L 453.80 729.80 L 459.60 724.50 L 465.10 718.80 L 470.10 712.90 L 474.80 706.60 L 479.00 700.10 L 482.90 693.20 L 486.20 686.20 L 489.10 678.80 L 491.60 671.30 L 493.50 663.50 L 494.90 655.70 L 495.70 647.50 L 496.00 639.20 L 495.70 630.90 L 494.90 622.80 L 493.50 614.90 L 491.60 607.20 L 489.10 599.60 L 486.20 592.30 L 482.90 585.20 L 479.00 578.40 L 474.80 571.80 L 470.10 565.60 L 465.10 559.70 L 459.60 554.00 L 453.80 548.70 L 447.70 543.80 L 441.30 539.30 L 434.50 535.20 L 427.50 531.50 L 420.20 528.20 L 412.70 525.40 L 404.80 523.00 L 396.90 521.20 L 388.80 519.80 L 380.40 519.00 L 371.80 518.70 Z" fill="#dcefff" fill-rule="nonzero" node-id="77" stroke="none" target-height="241.09998" target-width="248.4" target-x="247.6" target-y="518.7"></path><g node-id="89"><path d="M 921.10 696.30 L 732.90 884.50 L 687.20 838.80 L 875.40 650.60 Z" fill="url(#SVGID_4_)" fill-rule="nonzero" group-id="3" node-id="81" stroke="none" target-height="233.90002" target-width="233.89996" target-x="687.2" target-y="650.6"></path><g node-id="90"><path d="M 829.40 696.50 L 875.20 650.80 L 920.90 696.50 L 875.20 742.30 Z" fill="#236ffb" fill-rule="nonzero" group-id="3,4" node-id="85" stroke="none" target-height="91.5" target-width="91.5" target-x="829.4" target-y="650.8"></path></g></g></svg>