<?xml version="1.0" standalone="no"?><!DOCTYPE svg PUBLIC "-//W3C//DTD SVG 1.1//EN" "http://www.w3.org/Graphics/SVG/1.1/DTD/svg11.dtd"><svg height="1024" node-id="1" sillyvg="true" template-height="1024" template-width="1024" version="1.1" viewBox="0 0 1024 1024" width="1024" xmlns="http://www.w3.org/2000/svg" xmlns:xlink="http://www.w3.org/1999/xlink"><defs node-id="31"><linearGradient gradientUnits="objectBoundingBox" id="SVGID_1_" node-id="6" spreadMethod="pad" x1="601.3342" x2="601.3342" y1="152.807" y2="679.19"><stop offset="0" stop-color="#39c2ff"></stop><stop offset="1" stop-color="#236ffb" stop-opacity="0"></stop></linearGradient><linearGradient gradientUnits="objectBoundingBox" id="SVGID_2_" node-id="11" spreadMethod="pad" x1="235.3475" x2="630.7305" y1="437.1842" y2="911.6438"><stop offset="0" stop-color="#39c2ff"></stop><stop offset="1" stop-color="#236ffb"></stop></linearGradient><linearGradient gradientUnits="objectBoundingBox" id="SVGID_3_" node-id="15" spreadMethod="pad" x1="326.9137" x2="326.9137" y1="921.3884" y2="603.992"><stop offset="0" stop-color="#39c2ff" stop-opacity="0"></stop><stop offset="0.433" stop-color="#c9eeff" stop-opacity="0.6"></stop><stop offset="1" stop-color="#ffffff"></stop></linearGradient><linearGradient gradientUnits="objectBoundingBox" id="SVGID_4_" node-id="20" spreadMethod="pad" x1="816.5579" x2="816.5579" y1="460.9578" y2="148.7729"><stop offset="0" stop-color="#cce0ff"></stop><stop offset="1" stop-color="#236ffb"></stop></linearGradient><linearGradient gradientUnits="objectBoundingBox" id="SVGID_5_" node-id="25" spreadMethod="pad" x1="510.1273" x2="325.046" y1="278.2739" y2="471.7049"><stop offset="0" stop-color="#236ffb"></stop><stop offset="1" stop-color="#236ffb" stop-opacity="0"></stop></linearGradient></defs><g node-id="90"><path d="M 808.60 669.60 L 394.10 669.60 L 385.60 669.40 L 377.30 668.70 L 369.20 667.60 L 361.30 666.10 L 353.50 664.10 L 345.70 661.80 L 338.20 659.00 L 330.90 655.90 L 323.80 652.50 L 316.90 648.70 L 308.50 643.40 L 300.60 637.60 L 293.10 631.40 L 285.90 624.70 L 279.20 617.50 L 273.00 610.00 L 267.20 602.10 L 261.90 593.70 L 258.10 586.80 L 254.70 579.70 L 251.60 572.40 L 248.80 564.90 L 246.50 557.10 L 244.50 549.30 L 243.00 541.40 L 241.90 533.30 L 241.20 525.00 L 241.00 516.50 L 241.30 507.70 L 242.00 499.00 L 243.20 490.50 L 244.90 482.20 L 247.10 473.90 L 249.70 465.90 L 252.70 458.00 L 256.10 450.30 L 260.00 442.90 L 264.20 435.60 L 268.80 428.70 L 273.80 422.00 L 279.20 415.50 L 284.90 409.40 L 290.90 403.60 L 297.20 398.10 L 303.80 392.90 L 310.70 388.20 L 317.90 383.70 L 325.40 379.70 L 324.40 372.30 L 323.70 364.80 L 323.50 357.20 L 323.80 347.90 L 324.70 338.90 L 326.20 330.10 L 328.30 321.50 L 331.00 313.10 L 334.10 304.90 L 337.70 297.00 L 341.90 289.40 L 346.50 282.10 L 351.50 275.10 L 357.00 268.50 L 362.90 262.20 L 369.20 256.30 L 375.80 250.80 L 382.80 245.80 L 390.10 241.20 L 397.70 237.00 L 405.60 233.40 L 413.80 230.30 L 422.20 227.60 L 430.80 225.50 L 439.60 224.00 L 448.60 223.10 L 457.90 222.80 L 465.40 223.00 L 472.80 223.60 L 480.10 224.60 L 494.40 227.80 L 508.10 232.50 L 514.80 235.40 L 518.90 226.90 L 523.40 218.70 L 528.20 210.80 L 533.30 203.20 L 538.80 195.80 L 544.60 188.60 L 550.70 181.70 L 557.00 175.20 L 563.70 168.90 L 570.70 162.90 L 577.90 157.20 L 585.30 151.90 L 593.00 147.00 L 601.00 142.30 L 609.20 138.00 L 617.50 134.10 L 626.10 130.50 L 634.80 127.40 L 643.80 124.60 L 652.90 122.20 L 662.10 120.30 L 671.50 118.70 L 681.00 117.60 L 690.70 116.90 L 700.60 116.70 L 710.30 116.90 L 719.90 117.60 L 729.20 118.70 L 738.40 120.20 L 747.50 122.10 L 756.50 124.50 L 765.30 127.20 L 773.90 130.30 L 782.30 133.70 L 790.60 137.60 L 800.60 142.90 L 810.30 148.60 L 819.60 154.90 L 828.60 161.80 L 837.20 169.00 L 845.30 176.80 L 853.10 184.90 L 860.30 193.50 L 867.20 202.50 L 873.50 211.80 L 879.20 221.50 L 884.50 231.50 L 888.40 239.80 L 891.80 248.20 L 894.90 256.80 L 897.60 265.60 L 900.00 274.60 L 901.90 283.70 L 903.40 292.90 L 904.50 302.20 L 905.20 311.80 L 905.40 321.50 L 904.70 338.80 L 903.70 347.40 L 900.80 364.40 L 896.40 381.10 L 893.70 389.30 L 901.40 394.80 L 908.60 400.70 L 915.50 407.00 L 922.00 413.60 L 928.00 420.70 L 933.60 428.10 L 938.70 435.80 L 943.40 443.90 L 947.50 452.20 L 951.20 460.80 L 954.30 469.60 L 957.00 478.70 L 959.00 487.80 L 960.50 497.20 L 961.40 506.80 L 961.70 516.50 L 961.50 525.00 L 960.80 533.30 L 959.70 541.40 L 958.20 549.30 L 956.20 557.10 L 953.90 564.90 L 951.10 572.40 L 948.00 579.70 L 944.60 586.80 L 940.80 593.70 L 935.50 602.10 L 929.70 610.00 L 923.50 617.50 L 916.80 624.70 L 909.60 631.40 L 902.10 637.60 L 894.20 643.40 L 885.80 648.70 L 878.90 652.50 L 871.80 655.90 L 864.50 659.00 L 857.00 661.80 L 849.20 664.10 L 841.40 666.10 L 833.50 667.60 L 825.40 668.70 L 817.10 669.40 L 808.60 669.60 Z" fill="url(#SVGID_1_)" fill-opacity="0.5" fill-rule="nonzero" group-id="1" node-id="70" stroke="none" target-height="552.89996" target-width="720.7" target-x="241" target-y="116.7"></path></g><g node-id="91"><path d="M 650.10 912.40 L 235.70 912.40 L 227.20 912.20 L 218.90 911.50 L 210.80 910.40 L 202.90 908.90 L 195.10 906.90 L 187.30 904.60 L 179.80 901.80 L 172.50 898.70 L 165.40 895.30 L 158.50 891.50 L 150.10 886.20 L 142.20 880.40 L 134.70 874.20 L 127.50 867.50 L 120.80 860.30 L 114.60 852.80 L 108.80 844.90 L 103.50 836.50 L 99.70 829.60 L 96.30 822.50 L 93.20 815.20 L 90.40 807.70 L 88.10 799.90 L 86.10 792.10 L 84.60 784.20 L 83.50 776.10 L 82.80 767.80 L 82.60 759.30 L 82.90 750.50 L 83.60 741.80 L 84.80 733.30 L 86.50 725.00 L 88.70 716.70 L 91.30 708.70 L 94.30 700.80 L 97.70 693.10 L 101.60 685.70 L 105.80 678.40 L 110.40 671.50 L 115.40 664.80 L 120.80 658.30 L 126.50 652.20 L 132.50 646.40 L 138.80 640.90 L 145.40 635.70 L 152.30 631.00 L 159.50 626.50 L 167.00 622.50 L 166.00 615.10 L 165.30 607.60 L 165.10 600.00 L 165.40 590.70 L 166.30 581.70 L 167.80 572.90 L 169.90 564.30 L 172.60 555.90 L 175.70 547.70 L 179.30 539.80 L 183.50 532.20 L 188.10 524.90 L 193.10 517.90 L 198.60 511.30 L 204.50 505.00 L 210.80 499.10 L 217.40 493.70 L 224.40 488.60 L 231.70 484.00 L 239.30 479.80 L 247.20 476.20 L 255.40 473.10 L 263.80 470.40 L 272.40 468.30 L 281.20 466.80 L 290.20 465.90 L 299.50 465.60 L 307.00 465.80 L 314.40 466.40 L 321.70 467.40 L 336.00 470.60 L 342.90 472.80 L 356.40 478.20 L 360.50 469.70 L 365.00 461.50 L 369.80 453.60 L 374.90 446.00 L 380.40 438.60 L 386.20 431.40 L 392.30 424.50 L 398.60 418.00 L 405.30 411.70 L 412.30 405.70 L 419.50 400.00 L 426.90 394.70 L 434.60 389.80 L 442.60 385.10 L 450.80 380.80 L 459.10 376.90 L 467.70 373.30 L 476.40 370.20 L 485.40 367.40 L 494.50 365.00 L 503.70 363.10 L 513.10 361.50 L 522.60 360.40 L 532.30 359.70 L 542.20 359.50 L 551.90 359.70 L 561.50 360.40 L 570.80 361.50 L 580.00 363.00 L 589.10 364.90 L 598.10 367.30 L 606.90 370.00 L 615.50 373.10 L 623.90 376.50 L 632.20 380.40 L 642.20 385.70 L 651.90 391.40 L 661.20 397.70 L 670.20 404.60 L 678.80 411.80 L 686.90 419.60 L 694.70 427.70 L 701.90 436.30 L 708.80 445.30 L 715.10 454.60 L 720.80 464.30 L 726.10 474.30 L 730.00 482.60 L 733.40 491.00 L 736.50 499.60 L 739.20 508.40 L 741.60 517.40 L 743.50 526.50 L 745.00 535.70 L 746.10 545.00 L 746.80 554.60 L 747.00 564.30 L 746.30 581.60 L 745.30 590.20 L 742.40 607.20 L 738.00 623.90 L 735.30 632.10 L 743.00 637.60 L 750.20 643.50 L 757.10 649.80 L 763.60 656.40 L 769.60 663.50 L 775.20 670.90 L 780.30 678.60 L 785.00 686.70 L 789.10 695.00 L 792.80 703.60 L 795.90 712.40 L 798.60 721.50 L 800.60 730.60 L 802.10 740.00 L 803.00 749.60 L 803.30 759.30 L 803.00 767.80 L 802.40 776.10 L 801.30 784.20 L 799.70 792.10 L 797.80 799.90 L 795.40 807.70 L 792.70 815.20 L 789.60 822.50 L 786.10 829.60 L 782.30 836.50 L 777.00 844.90 L 771.30 852.80 L 765.10 860.30 L 758.40 867.50 L 751.20 874.20 L 743.60 880.40 L 735.70 886.20 L 727.40 891.50 L 720.40 895.30 L 713.30 898.70 L 706.00 901.80 L 698.50 904.60 L 690.80 906.90 L 683.00 908.90 L 675.00 910.40 L 666.90 911.50 L 658.60 912.20 L 650.10 912.40 Z" fill="url(#SVGID_2_)" fill-rule="nonzero" group-id="2" node-id="75" stroke="none" target-height="552.9" target-width="720.7" target-x="82.6" target-y="359.5"></path></g><path d="M 205.00 739.50 L 264.70 739.50 L 264.70 902.40 L 265.30 905.90 L 267.10 908.80 L 269.70 911.00 L 272.90 912.20 L 392.60 912.40 L 396.10 911.80 L 399.00 910.00 L 401.20 907.40 L 402.00 905.90 L 402.60 902.40 L 402.60 740.20 L 462.00 740.20 L 464.20 740.00 L 466.10 739.40 L 467.80 738.40 L 470.40 735.70 L 471.80 732.30 L 472.00 730.40 L 471.40 726.70 L 470.50 724.90 L 469.10 723.20 L 452.70 706.80 L 339.80 594.90 L 336.90 592.90 L 335.30 592.30 L 332.80 592.00 L 330.30 592.30 L 328.70 592.90 L 325.80 594.90 L 197.90 722.50 L 196.50 724.20 L 195.60 726.00 L 195.10 727.80 L 195.00 729.70 L 195.80 733.40 L 197.80 736.50 L 199.30 737.70 L 200.90 738.70 L 202.80 739.30 L 205.00 739.50 Z M 181.80 740.00 L 181.90 740.00 Z" fill="url(#SVGID_3_)" fill-rule="nonzero" node-id="78" stroke="none" target-height="320.40002" target-width="290.2" target-x="181.8" target-y="592"></path><path d="M 694.60 289.10 L 754.30 289.10 L 754.30 452.00 L 754.90 455.50 L 756.70 458.40 L 759.30 460.60 L 762.50 461.80 L 882.20 462.00 L 885.70 461.40 L 888.60 459.60 L 890.80 457.00 L 891.60 455.50 L 892.20 452.00 L 892.20 289.80 L 951.60 289.80 L 953.80 289.60 L 955.70 289.00 L 957.40 288.00 L 960.00 285.30 L 961.40 281.90 L 961.60 280.00 L 961.00 276.30 L 960.10 274.50 L 958.70 272.80 L 942.30 256.40 L 829.40 144.50 L 826.50 142.50 L 824.90 141.90 L 822.40 141.60 L 819.90 141.90 L 818.30 142.50 L 815.40 144.50 L 687.50 272.10 L 686.10 273.80 L 685.20 275.60 L 684.70 277.40 L 684.60 279.30 L 685.40 283.00 L 687.40 286.10 L 688.90 287.30 L 690.50 288.30 L 692.40 288.90 L 694.60 289.10 Z M 671.50 289.60 L 671.60 289.60 Z" fill="url(#SVGID_4_)" fill-rule="nonzero" node-id="80" stroke="none" target-height="320.4" target-width="290.09998" target-x="671.5" target-y="141.6"></path><g node-id="92"><path d="M 295.40 161.10 L 112.80 343.70 L 68.40 299.30 L 251.10 116.70 Z" fill="url(#SVGID_5_)" fill-rule="nonzero" group-id="3" node-id="84" stroke="none" target-height="227.00002" target-width="227" target-x="68.4" target-y="116.7"></path><g node-id="93"><path d="M 206.50 161.20 L 250.80 116.90 L 295.10 161.20 L 250.80 205.60 Z" fill="#236ffb" fill-rule="nonzero" group-id="3,4" node-id="88" stroke="none" target-height="88.700005" target-width="88.600006" target-x="206.5" target-y="116.9"></path></g></g></svg>